<?xml version="1.0" encoding="utf-8"?>
<!-- Generator: Adobe Illustrator 22.0.1, SVG Export Plug-In . SVG Version: 6.00 Build 0)  -->
<svg version="1.1" xmlns="http://www.w3.org/2000/svg" xmlns:xlink="http://www.w3.org/1999/xlink" x="0px" y="0px"
	 viewBox="0 0 1736 673.5" style="enable-background:new 0 0 1736 673.5;" xml:space="preserve">
<style type="text/css">
	.st0{fill:#CDF2FB;}
	.st1{fill:none;stroke:#CDF2FB;stroke-width:2.8346;stroke-miterlimit:10;}
	.st2{fill:none;stroke:#000000;stroke-width:1.4173;stroke-miterlimit:10;}
	.st3{fill:#FFFFFF;}
	.st4{fill:none;stroke:#F90B0B;stroke-miterlimit:10;}
	.st5{display:none;opacity:0.25;}
	.st6{display:inline;}
	.st7{display:none;}
	.st8{display:inline;opacity:0.38;fill:#606060;}
</style>
<g id="cuadricula">
</g>
<g id="Circulos">
</g>
<g id="Imagotipo">
</g>
<g id="tipografia_neska">
	<g>
		<path d="M275.8,326.4c-40.7,0-76.3,21.3-95.4,56.3v-48.8l-17,0v251.5h17V459.6c0-72.3,35.5-115.5,94.8-115.5
			c62.1,0,90.1,53.1,90.1,90.9v150.4h17V433.9C382.4,380.5,345.8,326.4,275.8,326.4z"/>
		<g>
			<rect x="1086.4" y="72.1" width="18.8" height="513.8"/>
			<polygon points="1282.2,585.1 1311.2,585.9 1163.5,438.4 1277.1,318.9 1250,318.9 1136.1,438.3 			"/>
		</g>
		<path d="M713,540.6c-6.3-4.3-10.2-6.9-13.8-9.6c-23.4,30.6-53.4,45.9-89.9,45.9c-74.3,0-108.2-61.2-108.2-121.8
			c0-49.4,34.1-113.4,102.3-113.4c58.7,0,98,40.1,100.6,102.4H537.1v15.4h183.5v-16.5c0-52.6-36.5-116.7-116.7-116.7
			C552,326.4,484,363.9,484,456.9c0,80,51.5,135.9,125.2,135.9C651.7,592.9,686.5,576.5,713,540.6z"/>
		<path d="M819.9,390.5c0.6,48.2,68.4,71.8,90.7,79.5c36.3,12.6,51.9,28.8,52.3,54c0.1,12-4.5,23.3-13.5,32.4
			c-13.2,13.5-34,21.1-58.4,21.4c-45,0.5-74.1-14.8-74.4-14.9l-2.3-1.2l-8.2,15.2c0,0,33.1,19.5,85.1,18.2
			c31.3-0.8,54.1-9.7,70.6-26.6c12.3-12.5,18.7-28,18.4-44.7c-0.6-42.7-34.4-59.9-63.9-70.1c-52.9-18.4-78.8-39.1-79.1-63.4
			c-0.1-12.2,3.8-22.4,11.8-30.4c11.6-11.7,31.7-18.4,55.1-18.5c37.9-0.2,56.7,18.2,56.7,18.2l11.9-12.5c0,0-21.6-23-68.6-23
			c-29.4,0-52.3,8.4-67.4,23.6C825.5,359,819.8,373.8,819.9,390.5z"/>
		<path d="M1405.2,351.8c2.6,1.9,9.4,7.1,13.2,9.7c13.4-7.9,24.5-14.8,57.4-14.2c51.4,1,76.8,22.4,77.3,76.4v40.6
			c0,15.8-4.5,41.9-17.2,63.3c-16.3,27.6-41.6,41.6-75.1,41.6c-21.5,0-68.1-9.6-68.1-56.9c0,0,0-0.1,0-0.1
			c0-19.8,4.5-33.5,13.2-42.4c18-18.6,59.4-15.6,112.9-15.6c0-3.3,0.2-12.2,0-16.9c-51.9,0-99.7-5.2-125.4,19.9
			c-11.8,11.5-17.7,29.8-17.7,55.1c0,50.4,44.1,73.3,85.1,73.3c31.9,0,73.3-14.7,92.3-55v54.9h16.3V424.5
			c0-60.3-33.3-93.5-93.6-93.5C1445.7,331,1427.7,332.3,1405.2,351.8z"/>
	</g>
</g>
<g id="otras_guias" class="st7">
</g>
<g id="guias">
</g>
</svg>
